HIERARCHY
ROOT pelvis
{
	OFFSET 0.003123 -0.351407 0.012037
	CHANNELS 6 Xposition Yposition Zposition Zrotation Yrotation Xrotation 
	JOINT left_hip
	{
		OFFSET 0.058189 -0.092763 -0.026001
		CHANNELS 3 Zrotation Yrotation Xrotation
		JOINT left_knee
		{
			OFFSET 0.054695 -0.378753 -0.009396
			CHANNELS 3 Zrotation Yrotation Xrotation
			JOINT left_ankle
			{
				OFFSET -0.043453 -0.403059 -0.031876
				CHANNELS 3 Zrotation Yrotation Xrotation
				JOINT left_foot
				{
					OFFSET 0.047257 -0.057997 0.118216
					CHANNELS 3 Zrotation Yrotation Xrotation
					End Site
					{
						OFFSET 0.000000 0.000000 0.000000
					}
				}
			}
		}
	}
	JOINT right_hip
	{
		OFFSET -0.063267 -0.103908 -0.021250
		CHANNELS 3 Zrotation Yrotation Xrotation
		JOINT right_knee
		{
			OFFSET -0.044210 -0.362380 -0.016824
			CHANNELS 3 Zrotation Yrotation Xrotation
			JOINT right_ankle
			{
				OFFSET 0.015417 -0.410728 -0.020192
				CHANNELS 3 Zrotation Yrotation Xrotation
				JOINT right_foot
				{
					OFFSET -0.038812 -0.058328 0.119049
					CHANNELS 3 Zrotation Yrotation Xrotation
					End Site
					{
						OFFSET 0.000000 0.000000 0.000000
					}
				}
			}
		}
	}
	JOINT spine_1
	{
		OFFSET -0.002763 0.109891 -0.027618
		CHANNELS 3 Zrotation Yrotation Xrotation
		JOINT spine_2
		{
			OFFSET 0.009448 0.131853 -0.005940
			CHANNELS 3 Zrotation Yrotation Xrotation
			JOINT spine_3
			{
				OFFSET -0.011330 0.052235 0.028447
				CHANNELS 3 Zrotation Yrotation Xrotation
				JOINT neck
				{
					OFFSET -0.012164 0.165167 -0.031615
					CHANNELS 3 Zrotation Yrotation Xrotation
					JOINT head
					{
						OFFSET 0.024783 0.160452 0.020737
						CHANNELS 3 Zrotation Yrotation Xrotation
						End Site
						{
							OFFSET 0.000000 0.000000 0.000000
						}
					}
				}
				JOINT left_collar
				{
					OFFSET 0.046364 0.084944 -0.007220
					CHANNELS 3 Zrotation Yrotation Xrotation
					JOINT left_shoulder
					{
						OFFSET 0.119239 0.057728 -0.015461
						CHANNELS 3 Zrotation Yrotation Xrotation
						JOINT left_elbow
						{
							OFFSET 0.254123 -0.072151 -0.042459
							CHANNELS 3 Zrotation Yrotation Xrotation
							JOINT left_wrist
							{
								OFFSET 0.251987 0.023221 -0.002472
								CHANNELS 3 Zrotation Yrotation Xrotation
								JOINT left_index_1
								{
									OFFSET 0.101902 -0.008688 0.019351
									CHANNELS 3 Zrotation Yrotation Xrotation
									JOINT left_index_2
									{
										OFFSET 0.030149 -0.011154 0.001151
										CHANNELS 3 Zrotation Yrotation Xrotation
										JOINT left_index_3
										{
											OFFSET 0.006504 -0.021577 -0.002433
											CHANNELS 3 Zrotation Yrotation Xrotation
											End Site
											{
												OFFSET 0.000000 0.000000 0.000000
											}
										}
									}
								}
								JOINT left_middle_1
								{
									OFFSET 0.109398 -0.006328 -0.003981
									CHANNELS 3 Zrotation Yrotation Xrotation
									JOINT left_middle_2
									{
										OFFSET 0.026472 -0.015218 -0.004641
										CHANNELS 3 Zrotation Yrotation Xrotation
										JOINT left_middle_3
										{
											OFFSET 0.005022 -0.023347 -0.001911
											CHANNELS 3 Zrotation Yrotation Xrotation
											End Site
											{
												OFFSET 0.000000 0.000000 0.000000
											}
										}
									}
								}
								JOINT left_pinky_1
								{
									OFFSET 0.084047 -0.014539 -0.043750
									CHANNELS 3 Zrotation Yrotation Xrotation
									JOINT left_pinky_2
									{
										OFFSET 0.012124 -0.014448 -0.005375
										CHANNELS 3 Zrotation Yrotation Xrotation
										JOINT left_pinky_3
										{
											OFFSET 0.003798 -0.018853 0.000167
											CHANNELS 3 Zrotation Yrotation Xrotation
											End Site
											{
												OFFSET 0.000000 0.000000 0.000000
											}
										}
									}
								}
								JOINT left_ring_1
								{
									OFFSET 0.097444 -0.009268 -0.027345
									CHANNELS 3 Zrotation Yrotation Xrotation
									JOINT left_ring_2
									{
										OFFSET 0.023561 -0.016057 -0.001895
										CHANNELS 3 Zrotation Yrotation Xrotation
										JOINT left_ring_3
										{
											OFFSET 0.004257 -0.023548 0.000814
											CHANNELS 3 Zrotation Yrotation Xrotation
											End Site
											{
												OFFSET 0.000000 0.000000 0.000000
											}
										}
									}
								}
								JOINT left_thumb_1
								{
									OFFSET 0.040636 -0.017977 0.025611
									CHANNELS 3 Zrotation Yrotation Xrotation
									JOINT left_thumb_2
									{
										OFFSET 0.021637 -0.017639 0.011623
										CHANNELS 3 Zrotation Yrotation Xrotation
										JOINT left_thumb_3
										{
											OFFSET 0.024002 -0.008356 0.006548
											CHANNELS 3 Zrotation Yrotation Xrotation
											End Site
											{
												OFFSET 0.000000 0.000000 0.000000
											}
										}
									}
								}
							}
						}
					}
				}
				JOINT right_collar
				{
					OFFSET -0.047695 0.084339 -0.013400
					CHANNELS 3 Zrotation Yrotation Xrotation
					JOINT right_shoulder
					{
						OFFSET -0.102578 0.053524 -0.012669
						CHANNELS 3 Zrotation Yrotation Xrotation
						JOINT right_elbow
						{
							OFFSET -0.271150 -0.036492 -0.026467
							CHANNELS 3 Zrotation Yrotation Xrotation
							JOINT right_wrist
							{
								OFFSET -0.249267 -0.004533 -0.015325
								CHANNELS 3 Zrotation Yrotation Xrotation
								JOINT right_index_1
								{
									OFFSET -0.099881 -0.011783 0.019600
									CHANNELS 3 Zrotation Yrotation Xrotation
									JOINT right_index_2
									{
										OFFSET -0.030148 -0.011154 0.001151
										CHANNELS 3 Zrotation Yrotation Xrotation
										JOINT right_index_3
										{
											OFFSET -0.006505 -0.021577 -0.002432
											CHANNELS 3 Zrotation Yrotation Xrotation
											End Site
											{
												OFFSET 0.000000 0.000000 0.000000
											}
										}
									}
								}
								JOINT right_middle_1
								{
									OFFSET -0.107376 -0.009422 -0.003734
									CHANNELS 3 Zrotation Yrotation Xrotation
									JOINT right_middle_2
									{
										OFFSET -0.026472 -0.015218 -0.004641
										CHANNELS 3 Zrotation Yrotation Xrotation
										JOINT right_middle_3
										{
											OFFSET -0.005022 -0.023347 -0.001911
											CHANNELS 3 Zrotation Yrotation Xrotation
											End Site
											{
												OFFSET 0.000000 0.000000 0.000000
											}
										}
									}
								}
								JOINT right_pinky_1
								{
									OFFSET -0.082027 -0.017634 -0.043503
									CHANNELS 3 Zrotation Yrotation Xrotation
									JOINT right_pinky_2
									{
										OFFSET -0.012123 -0.014448 -0.005374
										CHANNELS 3 Zrotation Yrotation Xrotation
										JOINT right_pinky_3
										{
											OFFSET -0.003798 -0.018852 0.000167
											CHANNELS 3 Zrotation Yrotation Xrotation
											End Site
											{
												OFFSET 0.000000 0.000000 0.000000
											}
										}
									}
								}
								JOINT right_ring_1
								{
									OFFSET -0.095423 -0.012362 -0.027099
									CHANNELS 3 Zrotation Yrotation Xrotation
									JOINT right_ring_2
									{
										OFFSET -0.023561 -0.016057 -0.001895
										CHANNELS 3 Zrotation Yrotation Xrotation
										JOINT right_ring_3
										{
											OFFSET -0.004257 -0.023548 0.000816
											CHANNELS 3 Zrotation Yrotation Xrotation
											End Site
											{
												OFFSET 0.000000 0.000000 0.000000
											}
										}
									}
								}
								JOINT right_thumb_1
								{
									OFFSET -0.038613 -0.021074 0.025861
									CHANNELS 3 Zrotation Yrotation Xrotation
									JOINT right_thumb_2
									{
										OFFSET -0.021636 -0.017639 0.011623
										CHANNELS 3 Zrotation Yrotation Xrotation
										JOINT right_thumb_3
										{
											OFFSET -0.024004 -0.008353 0.006547
											CHANNELS 3 Zrotation Yrotation Xrotation
											End Site
											{
												OFFSET 0.000000 0.000000 0.000000
											}
										}
									}
								}
							}
						}
					}
				}
			}
		}
	}
}
MOTION
Frames: 5
Frame Time: 0.050000
0.048316 0.943196 -0.036369 2.328834 3.017862 -17.472743 3.811059 0.867309 8.076401 -3.379643 -1.597511 20.774024 2.382783 4.828991 0.203885 0.000000 0.000000 0.000000 -10.972296 -0.174778 10.476402 4.131934 -0.349482 27.791848 -2.946726 -5.799918 -0.280860 0.000000 0.000000 0.000000 -0.595555 -0.567704 9.020081 -4.848814 2.399198 -1.588874 7.188825 3.662420 17.895504 1.136409 -1.255697 6.218548 0.000000 0.000000 0.000000 -3.639822 -4.163194 1.603842 -36.160853 -22.029931 -6.293728 119.397875 -56.190971 -73.330034 9.660552 -0.859535 -25.972678 6.292517 3.400389 1.075621 42.791793 -2.561727 -11.305965 0.000000 0.000000 0.000000 5.320199 -10.164271 -5.421339 37.076665 -1.146119 -12.489491 0.000000 0.000000 0.000000 26.268477 -22.635507 -37.178817 24.929548 0.060597 4.981033 0.000000 0.000000 0.000000 7.881423 -16.596163 -12.789497 37.558567 2.397057 -6.061065 0.000000 0.000000 0.000000 37.404267 22.289200 5.083251 -23.409247 -11.517594 4.430744 0.000000 0.000000 0.000000 6.083564 7.425911 4.026998 32.970266 40.885742 3.507638 -64.579582 57.549570 -35.547937 -7.870181 0.920179 -33.492076 -4.216531 -3.154740 0.967096 -18.232438 -0.994971 7.876449 0.000000 0.000000 0.000000 6.315798 10.467105 -5.632787 -22.558215 -0.216071 1.826127 0.000000 0.000000 0.000000 -7.656814 20.212811 -29.851110 -14.515754 -1.482827 10.424051 0.000000 0.000000 0.000000 7.462153 16.848224 -9.836326 -24.553673 -1.841060 2.092853 0.000000 0.000000 0.000000 -36.501579 -28.268503 9.631513 25.238419 15.060124 3.044081 0.000000 0.000000 0.000000 
0.056796 0.956573 -0.023170 2.186991 5.683445 -17.947819 3.595554 0.632583 6.101734 -3.485822 -1.690750 20.612952 3.816505 6.757739 -0.773901 0.000000 0.000000 0.000000 -8.845674 -0.417302 8.773139 3.976867 -0.619730 30.576635 -1.462839 -5.060123 4.023670 0.000000 0.000000 0.000000 -2.766659 -0.759459 13.743695 -4.248589 1.698889 -3.460575 8.004988 3.673797 18.251021 0.874870 -1.105516 5.646785 0.000000 0.000000 0.000000 -7.293824 -3.001064 0.404982 -35.038787 -32.570383 -6.268119 126.257679 -55.559380 -80.239533 8.682856 2.208639 -25.881096 4.930986 1.561170 0.419080 29.376369 -3.553804 -24.915652 0.000000 0.000000 0.000000 0.069488 -11.454374 -6.143521 24.554944 -2.489911 -28.208781 0.000000 0.000000 0.000000 22.769421 -20.816048 -33.145642 18.933618 0.025246 -0.077919 0.000000 0.000000 0.000000 3.771928 -16.704352 -12.095169 25.688814 1.095231 -18.325447 0.000000 0.000000 0.000000 29.926172 14.406850 -3.998198 -24.080169 -7.713081 5.128784 0.000000 0.000000 0.000000 10.230936 5.824742 3.301692 31.524429 38.482431 2.644952 -55.003617 62.292391 -32.600860 0.449109 9.209163 -40.722767 -171.848012 -54.324379 -155.536408 86.903150 -4.702920 -16.042588 0.000000 0.000000 0.000000 102.413647 -16.688824 -8.865714 12.264697 17.474709 -64.630744 0.000000 0.000000 0.000000 67.986118 34.237910 -17.721663 13.177702 -6.404310 10.865181 0.000000 0.000000 0.000000 89.301951 21.137107 11.010829 25.044377 18.746889 -25.211901 0.000000 0.000000 0.000000 125.157247 -59.328397 36.429348 -117.619545 -18.455377 147.647583 0.000000 0.000000 0.000000 
0.062214 0.954317 -0.021851 2.727928 3.505866 -16.767864 2.139088 0.845382 6.892416 -1.615765 -1.571027 16.407721 1.273132 1.998619 -0.640080 0.000000 0.000000 0.000000 -8.730521 -0.119303 4.365237 1.122681 0.536164 28.352845 -2.423609 -6.856822 4.050642 0.000000 0.000000 0.000000 -0.225658 -1.289057 19.647992 -4.933886 1.353740 -5.943281 4.835431 1.290978 17.541010 0.487220 -0.275484 1.273745 0.000000 0.000000 0.000000 -8.145941 -6.089744 2.343014 -35.491538 -38.869254 -5.697342 128.625275 -49.927518 -74.786641 14.874810 5.155147 -24.608522 6.699972 0.980149 0.237584 10.872240 -12.519379 -35.048134 0.000000 0.000000 0.000000 1.375304 -12.355856 -6.359633 -6.619029 -17.996896 -50.030510 0.000000 0.000000 0.000000 28.101790 -20.300309 -35.839324 9.320872 -3.488638 -14.858861 0.000000 0.000000 0.000000 5.865795 -17.553813 -13.222736 8.760582 -8.465646 -40.943691 0.000000 0.000000 0.000000 28.739537 15.493780 -2.811418 -23.063705 -6.452446 4.860942 0.000000 0.000000 0.000000 4.833839 3.982448 1.894880 43.287637 37.811208 5.269916 -32.072151 70.019998 -22.234603 3.818575 10.478806 -21.444281 -169.554343 -52.105668 -124.870356 45.377765 18.733100 -46.254534 0.000000 0.000000 0.000000 129.621340 -35.883008 -36.497285 -6.841526 5.882875 -56.281887 0.000000 0.000000 0.000000 107.411990 40.068012 -18.594174 -37.157226 -0.358781 -0.033667 0.000000 0.000000 0.000000 121.345737 17.700807 6.526219 -40.713019 -14.074709 -65.523466 0.000000 0.000000 0.000000 135.775643 -25.739631 55.808634 -139.750810 -23.906430 141.941507 0.000000 0.000000 0.000000 
0.069045 0.952061 -0.045609 3.599945 1.017803 -14.245657 2.662445 0.894051 7.403100 -3.213828 -0.892805 13.737972 0.430133 -0.993775 -2.205471 0.000000 0.000000 0.000000 -9.730435 0.182272 0.525379 -1.103888 1.309818 26.009454 -3.444433 -5.745146 -2.109092 0.000000 0.000000 0.000000 1.531639 -1.356055 18.275010 -6.634845 1.264036 -8.931179 4.985049 0.400492 22.337268 1.765569 -0.429315 0.599635 0.000000 0.000000 0.000000 -8.179508 -7.931360 3.656739 -33.706600 -44.650322 -5.963565 127.876914 -47.248424 -69.599643 16.693453 4.519372 -24.754608 9.933980 1.945050 0.606227 30.186069 -4.501514 -23.454346 0.000000 0.000000 0.000000 8.167007 -14.070532 -7.218953 16.856496 -5.698603 -39.693773 0.000000 0.000000 0.000000 28.396451 -22.861305 -39.084899 19.812037 -1.452586 -12.702234 0.000000 0.000000 0.000000 10.045643 -18.642207 -14.581954 22.907885 -0.989753 -38.058705 0.000000 0.000000 0.000000 28.908069 19.251325 1.852504 -20.131618 -11.250024 2.885383 0.000000 0.000000 0.000000 3.675955 5.433956 2.689691 45.936423 30.996477 3.181037 -14.239547 72.170705 -10.598146 -6.013174 0.797096 -7.884450 42.337260 -18.589843 -0.093643 84.177907 8.817779 -15.787375 0.000000 0.000000 0.000000 58.784114 6.861293 -6.648716 41.883272 24.153169 -44.287957 0.000000 0.000000 0.000000 -0.978662 43.348782 -61.856488 22.363331 1.598912 -2.322311 0.000000 0.000000 0.000000 42.612073 37.947126 -10.478751 19.562172 16.980148 -36.974887 0.000000 0.000000 0.000000 -7.113170 -23.015077 14.508644 -23.980948 7.176767 -10.397408 0.000000 0.000000 0.000000 
0.073050 0.943519 -0.053528 3.457749 -1.924994 -14.363043 2.393543 0.769327 6.010933 -5.003913 -0.511182 15.082866 1.030187 0.979310 -1.452645 0.000000 0.000000 0.000000 -10.244514 0.420621 -3.647048 -0.537296 1.417909 27.262547 -1.652862 -2.982565 -0.486357 0.000000 0.000000 0.000000 2.098251 -1.664118 21.283221 -9.037696 0.791190 -13.800927 5.768836 -0.519010 25.925586 0.068457 0.515855 -3.710136 0.000000 0.000000 0.000000 -2.822746 -10.698707 5.310704 -37.856837 -51.973608 -3.909977 130.098928 -45.604381 -68.762750 18.359666 4.687758 -25.445426 10.010796 5.224493 1.848381 36.581217 -3.568868 -18.779829 0.000000 0.000000 0.000000 6.987335 -11.148080 -5.609893 26.773283 -2.120560 -31.858733 0.000000 0.000000 0.000000 26.833498 -22.789548 -37.640386 15.102837 -0.693570 -5.578434 0.000000 0.000000 0.000000 7.109220 -16.744286 -12.601255 24.151498 0.089072 -31.769680 0.000000 0.000000 0.000000 35.341730 21.988198 3.552851 -21.639030 -11.726954 3.348999 0.000000 0.000000 0.000000 6.546018 8.201586 4.063105 48.536314 25.157151 1.091763 -0.576877 68.087811 -1.174321 -2.957191 -1.658250 5.132008 73.722168 -28.746740 -6.193515 83.897664 20.237170 -22.732501 0.000000 0.000000 0.000000 83.043426 3.855236 -11.556260 19.229993 19.637032 -54.063664 0.000000 0.000000 0.000000 8.091211 59.031290 -71.485487 7.057499 -5.786683 35.394518 0.000000 0.000000 0.000000 66.233431 42.298520 -4.411191 8.413038 4.691305 -27.475560 0.000000 0.000000 0.000000 -5.134412 -14.029852 11.488246 -17.485695 -3.090402 -4.594866 0.000000 0.000000 0.000000 
